PathFileType	4	(X/Y/Z)	4_coords_data.trc
DataRate	CameraRate	NumFrames	NumMarkers	Units	OrigDataRate	OrigDataStartFrame	OrigNumFrames
30.0	30.0	7	21	m	30.0	24	47
Frame#	Time	THUMB_TIP	THUMB_IP	THUMB_MCP	THUMB_CMC	INDEX_TIP	INDEX_DIP	INDEX_PIP	INDEX_MCP	MIDDLE_TIP	MIDDLE_DIP	MIDDLE_PIP	MIDDLE_MCP	RING_TIP	RING_DIP	RING_PIP	RING_MCP	PINKY_TIP	PINKY_DIP	PINKY_PIP	PINKY_MCP	WRIST
X1	Y1	Z1	X2	Y2	Z2	X3	Y3	Z3	X4	Y4	Z4	X5	Y5	Z5	X6	Y6	Z6	X7	Y7	Z7	X8	Y8	Z8	X9	Y9	Z9	X10	Y10	Z10	X11	Y11	Z11	X12	Y12	Z12	X13	Y13	Z13	X14	Y14	Z14	X15	Y15	Z15	X16	Y16	Z16	X17	Y17	Z17	X18	Y18	Z18	X19	Y19	Z19	X20	Y20	Z20	X21	Y21	Z21
23	0.7666666666666667	-0.035172698974609375	-0.08655500030517578	1.126489990234375	-0.03520880126953125	-0.06712889862060546	1.1101500244140625	-0.05136740112304688	-0.0453734016418457	1.09777001953125	-0.05128179931640625	-0.01149269962310791	1.0950400390625	-0.0467422981262207	-0.1439409942626953	1.0778599853515625	-0.04599489974975586	-0.12255300140380859	1.072800048828125	-0.044792999267578126	-0.09969869995117188	1.0666600341796875	-0.03841109848022461	-0.0584286003112793	1.0494100341796875	-0.033263999938964846	-0.05703219985961914	1.091	-0.03185869979858398	-0.07744619750976563	1.0919000244140624	-0.02398349952697754	-0.09384590148925781	1.074510009765625	-0.012105500221252442	-0.05475080108642578	1.0506199951171875	-0.018219600677490233	-0.054777301788330075	1.1015999755859376	-0.01589620018005371	-0.07359110260009766	1.102800048828125	0.0011901600360870361	-0.08635260009765625	1.08856005859375	0.006855080127716065	-0.04938629913330078	1.066050048828125	0.06628970336914063	-0.09528549957275391	1.0876400146484375	0.05077019882202148	-0.08001629638671875	1.0890799560546875	0.03566130065917969	-0.06628549957275391	1.08847998046875	0.01397029972076416	-0.04391699981689453	1.0873399658203124	-0.03594100189208985	0.02724399948120117	1.09297998046875
24	0.8	-0.03524570083618164	-0.0878324966430664	1.125949951171875	-0.03598619842529297	-0.06848860168457031	1.109199951171875	-0.051671600341796874	-0.046406600952148436	1.097510009765625	-0.051925701141357423	-0.01229889965057373	1.094949951171875	-0.04523519897460938	-0.14489300537109376	1.07656005859375	-0.044953498840332035	-0.12338200378417968	1.07168994140625	-0.04430459976196289	-0.10045500183105469	1.0658599853515625	-0.038896499633789064	-0.05893170166015625	1.049489990234375	-0.03297869873046875	-0.05786909866333008	1.0906700439453125	-0.03181410026550293	-0.07839559936523438	1.0915400390625	-0.023435400009155272	-0.09467489624023437	1.0738699951171875	-0.012537199974060059	-0.055099399566650394	1.050510009765625	-0.018499000549316406	-0.055880901336669925	1.101530029296875	-0.01607480049133301	-0.07449189758300781	1.1026500244140625	0.001087030053138733	-0.08667649841308593	1.0878199462890625	0.006576000213623047	-0.049346298217773435	1.0660999755859375	0.06540139770507812	-0.09607520294189453	1.0868599853515626	0.05017670059204102	-0.08055500030517578	1.0881800537109374	0.035272701263427735	-0.06669490051269532	1.0877099609375	0.013667200088500977	-0.04385599899291992	1.0865999755859375	-0.036894901275634766	0.02694919967651367	1.093949951171875
25	0.8333333333333334	-0.03620589828491211	-0.09017600250244141	1.1250999755859374	-0.036596900939941404	-0.0696717987060547	1.109199951171875	-0.05285520172119141	-0.04783150100708008	1.09806005859375	-0.05302489852905273	-0.013725799560546875	1.09527001953125	-0.0413573989868164	-0.14656700134277345	1.07375	-0.042165699005126955	-0.12503800201416015	1.06952001953125	-0.042875701904296876	-0.10190499877929687	1.06443994140625	-0.03954339981079102	-0.05965909957885742	1.0489100341796875	-0.033679798126220704	-0.060308200836181644	1.09002001953125	-0.03140130043029785	-0.08174359893798828	1.0916800537109375	-0.021321699142456053	-0.09653700256347657	1.0724200439453124	-0.013449700355529785	-0.055691600799560544	1.0504000244140625	-0.019740800857543945	-0.057330299377441406	1.1014000244140625	-0.015865200042724608	-0.0762386016845703	1.1019100341796875	0.001232589960098266	-0.08731950378417969	1.0871600341796874	0.005891960144042968	-0.049382099151611326	1.0653599853515625	0.0640094985961914	-0.09730390167236327	1.0858299560546876	0.049402000427246094	-0.081339599609375	1.08697998046875	0.034957401275634764	-0.06691419982910156	1.0863900146484375	0.013276599884033203	-0.04361989974975586	1.08618994140625	-0.0385343017578125	0.026420299530029296	1.09493994140625
26	0.8666666666666667	-0.040206600189208984	-0.09354789733886719	1.1245999755859375	-0.03819540023803711	-0.07270089721679687	1.1102900390625	-0.054725101470947266	-0.05013710021972656	1.0978800048828126	-0.05447439956665039	-0.015570099830627442	1.0956199951171874	-0.035812198638916014	-0.14863800048828124	1.069219970703125	-0.038123199462890625	-0.12694200134277345	1.0658199462890625	-0.04048600006103516	-0.1035719985961914	1.061969970703125	-0.040159801483154296	-0.06048770141601562	1.04922998046875	-0.0333026008605957	-0.06319369888305663	1.091280029296875	-0.028302200317382814	-0.08647949981689453	1.0921099853515626	-0.016129499435424806	-0.0987760009765625	1.07	-0.014338000297546387	-0.056293300628662106	1.0508199462890624	-0.02016950035095215	-0.059591400146484376	1.1026700439453125	-0.014460100173950195	-0.07853929901123047	1.1013299560546874	0.003495049953460693	-0.08729419708251954	1.086800048828125	0.0054559001922607426	-0.04886190032958984	1.06547998046875	0.06358620071411134	-0.09715660095214844	1.0855	0.04965250015258789	-0.08076339721679687	1.0861700439453126	0.03562409973144531	-0.0657876968383789	1.085719970703125	0.013528400421142579	-0.042404300689697264	1.0856300048828125	-0.04041030120849609	0.02527039909362793	1.09531005859375
27	0.9	-0.046720001220703126	-0.0975177993774414	1.124260009765625	-0.0418739013671875	-0.07613520050048828	1.112469970703125	-0.05776739883422852	-0.05179029846191406	1.0992900390625	-0.056172401428222656	-0.017336599349975584	1.0966199951171876	-0.02826889991760254	-0.14991200256347656	1.0651099853515624	-0.03231029891967773	-0.12819200134277345	1.062530029296875	-0.03660169982910156	-0.10474299621582031	1.0596800537109374	-0.040181800842285155	-0.06127090072631836	1.0504100341796876	-0.03151009941101074	-0.06912200164794922	1.0986199951171876	-0.022394500732421874	-0.095872802734375	1.096530029296875	-0.009995340347290039	-0.09895819854736328	1.0694100341796875	-0.01472819995880127	-0.056077800750732425	1.0525799560546876	-0.019774900436401368	-0.06437899780273437	1.107800048828125	-0.009839119911193848	-0.08095980072021484	1.10397998046875	0.008220899581909179	-0.08618260192871094	1.0876400146484375	0.005164509773254394	-0.047315601348876954	1.06681005859375	0.06515760040283203	-0.093731201171875	1.088719970703125	0.051660499572753905	-0.07708689880371093	1.088300048828125	0.0379369010925293	-0.06207410049438476	1.0865799560546876	0.014769100189208984	-0.03929629898071289	1.0856600341796876	-0.043712501525878904	0.024605899810791015	1.096949951171875
28	0.9333333333333333	-0.05000239944458008	-0.10301000213623047	1.122280029296875	-0.045585098266601565	-0.07936579895019531	1.11225	-0.060811599731445315	-0.05432580184936524	1.1003499755859374	-0.05822880172729492	-0.019821100234985352	1.0983699951171875	-0.018034299850463866	-0.14961099243164064	1.065530029296875	-0.024422199249267577	-0.1282689971923828	1.062550048828125	-0.03134580039978027	-0.10496600341796875	1.059550048828125	-0.039840599060058594	-0.06233689880371094	1.0523399658203125	-0.02460449981689453	-0.10008399963378906	1.1173699951171876	-0.013417499542236328	-0.10508899688720703	1.0990799560546876	-0.005293489933013916	-0.09779519653320312	1.071300048828125	-0.014677599906921386	-0.055430301666259764	1.0551400146484375	-0.009519880294799804	-0.09433899688720702	1.130010009765625	0.004272950172424316	-0.09390129852294922	1.111199951171875	0.0151766996383667	-0.08391819763183593	1.0873900146484374	0.004846350193023681	-0.04603509902954102	1.069239990234375	0.06796880340576172	-0.08654859924316406	1.0936400146484375	0.05463330078125	-0.07064520263671875	1.091530029296875	0.040506301879882814	-0.05608729934692383	1.0884100341796874	0.015307600021362305	-0.03510409927368164	1.0865400390625	-0.04813399887084961	0.02298979949951172	1.09927001953125
29	0.9666666666666667	-0.048720298767089845	-0.1095250015258789	1.12447998046875	-0.04528170013427734	-0.08533540344238282	1.1150899658203124	-0.0618297004699707	-0.05987820053100586	1.1043699951171875	-0.05973020172119141	-0.02460619926452637	1.10197998046875	-0.004679110050201416	-0.1485500030517578	1.070489990234375	-0.013981900215148925	-0.1282209930419922	1.0668900146484375	-0.02418899917602539	-0.10602300262451173	1.063260009765625	-0.0387765998840332	-0.06539450073242188	1.05625	-0.014014599800109863	-0.09976029968261718	1.1193599853515626	-0.003207220077514648	-0.10370899963378906	1.1008199462890624	0.0029373199939727785	-0.09545600128173828	1.0725899658203124	-0.014178899765014649	-0.05557809829711914	1.0574599609375	0.003556649923324585	-0.09006739807128906	1.1263800048828125	0.016691999435424806	-0.09026319885253906	1.10872998046875	0.024823699951171875	-0.07903549957275391	1.0835699462890624	0.0049102802276611325	-0.04316680145263672	1.0700899658203125	0.07277269744873047	-0.07435489654541015	1.0969100341796876	0.058939399719238283	-0.06008689880371094	1.0928199462890624	0.043714900970458985	-0.04709159851074219	1.0883499755859376	0.015327199935913086	-0.029680700302124025	1.0855400390625	-0.05446310043334961	0.019050800323486328	1.103
